# xmcd
#
# Track frame offsets: 
#        150
#        15093
#        32409
#        49581
#        64971
#        80717
#        94700
#        117619
#        130127
#        146902
#        169907
#        186355
#        204334
#        225050
#
# Disc length: 3523 seconds
#
# Revision: 0
# Processed by: cddbd v1.5.2PL0 Copyright (c) Steve Scherf et al.
# Submitted via: ExactAudioCopy v1.0b3
#
DISCID=b60dc10e
DTITLE=Allan J. Cortez - Simple Song
DYEAR=2006
DGENRE=Country
TTITLE0=Simple Song
TTITLE1=Country Roads
TTITLE2=Fight Tonight
TTITLE3=Tease Me, Please Me
TTITLE4=Vamos Abailar
TTITLE5=Grand Dead's Dreams
TTITLE6=Comin' Home To You
TTITLE7=Workin'
TTITLE8=Decision of Life
TTITLE9=There are Times
TTITLE10=Evil Lady
TTITLE11=Can' Come out to Play
TTITLE12=Bonus 1
TTITLE13=Bonus 2
EXTD=
EXTT0=
EXTT1=
EXTT2=
EXTT3=
EXTT4=
EXTT5=
EXTT6=
EXTT7=
EXTT8=
EXTT9=
EXTT10=
EXTT11=
EXTT12=
EXTT13=
PLAYORDER=
